<?xml version="1.0" standalone="no"?>
<!DOCTYPE svg PUBLIC "-//W3C//DTD SVG 20010904//EN"
 "http://www.w3.org/TR/2001/REC-SVG-20010904/DTD/svg10.dtd">
<svg version="1.0" xmlns="http://www.w3.org/2000/svg"
 width="16.000000pt" height="16.000000pt" viewBox="0 0 16.000000 16.000000"
 preserveAspectRatio="xMidYMid meet">
<metadata>
Created by potrace 1.11, written by Peter Selinger 2001-2013
</metadata>
<g transform="translate(0.000000,16.000000) scale(0.003687,-0.003687)"
fill="#000000" stroke="none">
<path d="M0 2170 l0 -2170 2170 0 2170 0 0 2170 0 2170 -2170 0 -2170 0 0
-2170z m3330 865 c269 -72 469 -260 530 -500 24 -95 27 -249 6 -357 -62 -313
-286 -590 -569 -698 -148 -58 -219 -72 -367 -73 -161 -1 -730 14 -730 20 0 2
6 17 14 32 13 25 23 29 89 38 41 6 86 18 100 28 58 37 125 228 237 670 137
543 136 535 65 535 -27 0 -35 4 -35 18 0 36 23 49 93 56 37 4 111 16 164 26
53 11 97 19 99 17 2 -1 -13 -52 -32 -112 -32 -99 -60 -212 -155 -615 -42 -178
-114 -399 -165 -509 -31 -67 -41 -98 -34 -105 7 -7 76 -11 188 -11 199 0 263
13 393 81 184 97 320 275 380 500 28 105 31 316 5 419 -58 235 -229 406 -461
461 -104 24 -290 15 -410 -20 -158 -47 -270 -108 -391 -212 -92 -80 -106 -107
-163 -319 -67 -246 -184 -707 -207 -813 -20 -96 -15 -107 49 -97 42 6 49 -9
20 -43 -16 -18 -33 -21 -158 -24 l-140 -4 32 96 c18 54 74 256 124 451 50 195
99 378 109 407 10 29 15 50 10 47 -15 -9 -143 -183 -243 -330 -104 -154 -169
-259 -313 -512 -53 -93 -100 -172 -105 -177 -5 -6 -9 2 -9 20 0 16 -13 202
-30 414 -16 212 -32 437 -36 500 -7 117 -21 199 -23 134 -3 -111 -88 -467
-150 -624 -108 -278 -267 -445 -455 -479 -89 -16 -157 3 -177 51 -10 26 -10
35 2 57 22 39 56 46 152 31 68 -10 91 -10 123 0 51 17 157 125 207 210 103
179 195 521 232 869 l7 64 -76 -8 c-41 -3 -97 -12 -123 -19 -171 -45 -323
-189 -323 -306 0 -20 13 -56 30 -85 61 -105 64 -114 54 -142 -5 -16 -21 -32
-37 -37 -40 -14 -76 10 -110 76 -26 49 -29 60 -25 135 4 69 10 93 41 156 65
131 201 232 367 272 36 9 133 20 216 25 83 5 163 12 178 16 l26 6 0 -89 c0
-83 41 -689 55 -811 4 -29 10 -50 14 -48 4 3 29 43 56 88 144 248 375 570 500
693 124 124 347 297 467 364 69 38 181 77 293 101 118 26 422 23 525 -5z"/>
</g>
</svg>
